<?xml version="1.0" standalone="no"?>
<!DOCTYPE svg PUBLIC "-//W3C//DTD SVG 20010904//EN"
 "http://www.w3.org/TR/2001/REC-SVG-20010904/DTD/svg10.dtd">
<svg version="1.0" xmlns="http://www.w3.org/2000/svg"
 width="200.000000pt" height="200.000000pt" viewBox="0 0 200.000000 200.000000"
 preserveAspectRatio="xMidYMid meet">
<metadata>
Created by potrace 1.16, written by Peter Selinger 2001-2019
</metadata>
<g transform="translate(0.000000,200.000000) scale(0.100000,-0.100000)"
fill="#000000" stroke="none">
<path d="M1327 1932 l-117 -67 0 -222 c0 -123 -2 -223 -5 -223 -3 0 -27 12
-53 27 l-48 26 -72 -42 -72 -43 -89 51 c-49 28 -92 51 -95 51 -4 0 -58 -30
-121 -66 l-115 -66 0 -300 0 -300 -37 23 c-21 13 -45 27 -53 32 -11 6 -48 -10
-133 -59 l-117 -69 0 -145 0 -145 -98 -55 -97 -56 0 -68 0 -68 125 -74 125
-73 155 -1 156 0 712 412 c657 380 712 414 712 438 0 23 -17 36 -155 114
l-155 88 0 199 0 199 35 -14 35 -15 0 152 0 152 -35 19 c-31 17 -34 23 -37 69
l-3 50 -70 42 c-38 22 -91 53 -116 67 l-46 27 -116 -67z m224 -9 c54 -32 99
-60 99 -63 0 -7 -193 -115 -205 -115 -17 0 -205 109 -202 118 2 8 187 116 200
117 5 0 53 -26 108 -57z m-178 -159 l67 -38 0 -174 0 -175 -47 -96 -48 -96 -5
78 -5 79 -55 32 -55 32 -3 223 -2 223 42 -25 c24 -13 73 -42 111 -63z m297 37
c0 -36 -5 -42 -97 -118 -133 -108 -123 -106 -123 -26 l0 69 98 56 c53 31 103
57 110 57 7 1 12 -13 12 -38z m-758 -401 c32 -17 60 -36 63 -40 3 -4 -41 -35
-96 -67 l-102 -60 -104 60 c-65 38 -100 64 -94 70 5 5 51 33 103 62 l93 54 40
-23 c22 -13 66 -38 97 -56z m347 -30 c24 -14 44 -30 44 -35 0 -6 -44 -35 -98
-66 l-98 -57 -49 30 c-46 28 -48 32 -48 73 0 31 -5 47 -17 55 -10 6 -13 13 -8
16 6 2 35 20 65 39 l55 34 55 -32 c30 -17 75 -42 99 -57z m411 -238 l0 -298
-102 -60 c-56 -32 -106 -60 -110 -62 -4 -2 -8 59 -8 136 l0 140 103 221 c56
121 105 220 110 221 4 0 7 -134 7 -298z m-1005 150 l100 -58 3 -183 2 -183
-45 -84 c-25 -46 -50 -84 -55 -84 -4 0 -33 14 -64 32 l-56 32 0 293 c0 161 3
293 8 293 4 0 52 -26 107 -58z m335 -47 c0 -58 -3 -105 -8 -105 -4 0 -17 7
-29 15 -25 17 -17 27 -119 -155 l-59 -105 -3 164 c-1 91 1 168 5 172 12 11
197 118 206 119 4 0 7 -47 7 -105z m279 -197 l-52 -107 -56 48 -56 49 3 88 3
89 102 57 102 57 3 -86 c3 -86 3 -87 -49 -195z m-214 -119 l35 -31 0 -184 c0
-101 -2 -184 -5 -184 -3 0 -23 11 -45 25 l-40 25 0 183 c0 160 3 197 16 197 2
0 19 -14 39 -31z m-69 -475 c-4 -10 -195 -124 -209 -124 -4 0 -7 44 -7 98 l0
97 81 145 c44 80 93 165 107 190 l27 45 3 -220 c1 -121 0 -225 -2 -231z m320
270 c12 5 15 -2 12 -36 -3 -45 5 -38 -150 -127 l-58 -32 0 176 0 176 91 -81
c57 -51 96 -79 105 -76z m-775 30 c54 -31 97 -60 94 -64 -7 -11 -188 -113
-200 -113 -17 0 -207 114 -200 121 14 14 181 110 193 111 8 1 59 -24 113 -55z
m-216 -135 l105 -61 0 -214 0 -213 -107 62 -108 62 -3 213 c-1 116 0 212 3
212 3 0 53 -27 110 -61z m249 -103 c-48 -86 -85 -158 -83 -160 2 -2 36 -21 74
-44 64 -38 71 -39 83 -24 12 15 13 15 10 -8 -2 -19 -24 -37 -101 -82 -54 -32
-103 -58 -108 -58 -5 0 -9 89 -9 208 l0 208 107 62 c59 34 109 60 110 58 2 -2
-35 -74 -83 -160z"/>
</g>
</svg>
