<svg width="1340" height="236" xmlns="http://www.w3.org/2000/svg" fill="none">

 <g>
  <title>Layer 1</title>
  <path id="svg_1" fill="#376d2b" d="m-8,67.575l73.6415,6.901c48.6416,0.901 17.9245,7.703 184.2075,-0.618c166.283,-8.321 177.567,-29.7643 285.85,0.4951c108.283,30.2594 133.566,53.2219 250.849,45.2219c117.283,-8 40.572,2.0375 213.852,-30.3823c173.28,-32.4198 172.56,-35.2967 277.2,-14.2357l56.65,11.061l-1,-79.36785l-44.65,0c-44.64,0 -133.92,0 -223.2,0c-89.286,0 -178.569,0 -267.852,0c-89.283,0 -178.566,0 -267.849,0c-89.284,0 -178.567,0 -267.85,0c-89.283,0 -178.5659,0 -223.2075,0l-44.6415,0l-2,60.92485z" clip-rule="evenodd" fill-rule="evenodd"/>
 </g>
</svg>