<svg xmlns="http://www.w3.org/2000/svg" x="0px" y="0px"
width="80" height="80"
viewBox="0 0 171 171"
style=" fill:#000000;"><g fill="none" fill-rule="nonzero" stroke="none" stroke-width="1" stroke-linecap="butt" stroke-linejoin="miter" stroke-miterlimit="10" stroke-dasharray="" stroke-dashoffset="0" font-family="none" font-weight="none" font-size="none" text-anchor="none" style="mix-blend-mode: normal"><path d="M0,171.98863v-171.98863h171.98863v171.98863z" fill="none"></path><g fill="#e67e22"><path d="M59.85,16.77437l-1.0604,0.60535c-4.98696,2.84939 -9.97588,5.70081 -14.9625,8.55l-1.0771,0.61787v20.47742h-10.6875v2.1375v10.6875h4.275v91.9125h98.325v-91.9125h4.275v-12.825h-10.6875v-21.375h-52.86555c-4.82388,-2.75627 -9.64997,-5.51397 -14.47405,-8.27029zM59.85,21.70064c4.27485,2.44261 8.5499,4.8882 12.825,7.33096v5.16841l-1.71167,0.86001l-0.33816,1.88284l1.30671,1.39856l0.74311,0.13359v8.55h-25.65v-8.55l1.71167,-0.86001l0.33816,-1.88284l-1.30671,-1.39856l-0.74311,-0.13359v-5.16841c4.2751,-2.44276 8.55015,-4.88834 12.825,-7.33096zM76.95,29.925h8.74622l-0.10854,0.60535l1.30671,1.39856l0.74311,0.13359l1.71167,-0.86001l0.22961,-1.27749h8.94243l-0.10854,0.60535l1.30671,1.39856l0.74311,0.13359l1.71167,-0.86001l0.22961,-1.27749h8.94243l-0.10854,0.60535l1.30671,1.39856l0.74311,0.13359l1.71167,-0.86001l0.22961,-1.27749h8.74622v17.1h-8.74622l0.10854,-0.60535l-1.30671,-1.39856l-0.74311,-0.13359l-1.71167,0.86001l-0.22961,1.27749h-8.94243l0.10854,-0.60535l-1.30671,-1.39856l-0.74311,-0.13359l-1.71167,0.86001l-0.22961,1.27749h-8.94243l0.10854,-0.60535l-1.30671,-1.39856l-0.74311,-0.13359l-1.71167,0.86001l-0.22961,1.27749h-8.74622zM55.575,34.2l-1.71167,0.86001l-0.33816,1.88284l1.30671,1.39856l0.74311,0.13359l1.71167,-0.86001l0.33816,-1.88284l-1.30671,-1.39856zM64.125,34.2l-1.71167,0.86001l-0.33816,1.88284l1.30671,1.39856l0.74311,0.13359l1.71167,-0.86001l0.33816,-1.88284l-1.30671,-1.39856zM87.6375,36.3375l-1.71167,0.86001l-0.33816,1.88284l1.30671,1.39856l0.74311,0.13359l1.71167,-0.86001l0.33816,-1.88284l-1.30671,-1.39856zM100.4625,36.3375l-1.71167,0.86001l-0.33816,1.88284l1.30671,1.39856l0.74311,0.13359l1.71167,-0.86001l0.33816,-1.88284l-1.30671,-1.39856zM113.2875,36.3375l-1.71167,0.86001l-0.33816,1.88284l1.30671,1.39856l0.74311,0.13359l1.71167,-0.86001l0.33816,-1.88284l-1.30671,-1.39856zM36.3375,51.3h98.325v4.275h-4.275v91.9125h-32.0625v-23.5125h4.275v-4.275h-34.2v4.275h4.275v23.5125h-32.0625v-91.9125h-4.275zM47.025,55.575c-1.1799,0 -2.1375,0.9576 -2.1375,2.1375c0,1.1799 0.9576,2.1375 2.1375,2.1375c1.1799,0 2.1375,-0.9576 2.1375,-2.1375c0,-1.1799 -0.9576,-2.1375 -2.1375,-2.1375zM55.575,55.575c-1.1799,0 -2.1375,0.9576 -2.1375,2.1375c0,1.1799 0.9576,2.1375 2.1375,2.1375c1.1799,0 2.1375,-0.9576 2.1375,-2.1375c0,-1.1799 -0.9576,-2.1375 -2.1375,-2.1375zM64.125,55.575c-1.1799,0 -2.1375,0.9576 -2.1375,2.1375c0,1.1799 0.9576,2.1375 2.1375,2.1375c1.1799,0 2.1375,-0.9576 2.1375,-2.1375c0,-1.1799 -0.9576,-2.1375 -2.1375,-2.1375zM72.675,55.575c-1.1799,0 -2.1375,0.9576 -2.1375,2.1375c0,1.1799 0.9576,2.1375 2.1375,2.1375c1.1799,0 2.1375,-0.9576 2.1375,-2.1375c0,-1.1799 -0.9576,-2.1375 -2.1375,-2.1375zM81.225,55.575c-1.1799,0 -2.1375,0.9576 -2.1375,2.1375c0,1.1799 0.9576,2.1375 2.1375,2.1375c1.1799,0 2.1375,-0.9576 2.1375,-2.1375c0,-1.1799 -0.9576,-2.1375 -2.1375,-2.1375zM89.775,55.575c-1.1799,0 -2.1375,0.9576 -2.1375,2.1375c0,1.1799 0.9576,2.1375 2.1375,2.1375c1.1799,0 2.1375,-0.9576 2.1375,-2.1375c0,-1.1799 -0.9576,-2.1375 -2.1375,-2.1375zM98.325,55.575c-1.1799,0 -2.1375,0.9576 -2.1375,2.1375c0,1.1799 0.9576,2.1375 2.1375,2.1375c1.1799,0 2.1375,-0.9576 2.1375,-2.1375c0,-1.1799 -0.9576,-2.1375 -2.1375,-2.1375zM106.875,55.575c-1.1799,0 -2.1375,0.9576 -2.1375,2.1375c0,1.1799 0.9576,2.1375 2.1375,2.1375c1.1799,0 2.1375,-0.9576 2.1375,-2.1375c0,-1.1799 -0.9576,-2.1375 -2.1375,-2.1375zM115.425,55.575c-1.1799,0 -2.1375,0.9576 -2.1375,2.1375c0,1.1799 0.9576,2.1375 2.1375,2.1375c1.1799,0 2.1375,-0.9576 2.1375,-2.1375c0,-1.1799 -0.9576,-2.1375 -2.1375,-2.1375zM123.975,55.575c-1.1799,0 -2.1375,0.9576 -2.1375,2.1375c0,1.1799 0.9576,2.1375 2.1375,2.1375c1.1799,0 2.1375,-0.9576 2.1375,-2.1375c0,-1.1799 -0.9576,-2.1375 -2.1375,-2.1375zM47.025,68.4v2.1375v14.9625h12.825v-17.1zM68.4,68.4v2.1375v14.9625h12.825v-17.1zM89.775,68.4v2.1375v14.9625h12.825v-17.1zM111.15,68.4v2.1375v14.9625h12.825v-17.1zM51.3,72.675h4.275v8.55h-4.275zM72.675,72.675h4.275v8.55h-4.275zM94.05,72.675h4.275v8.55h-4.275zM115.425,72.675h4.275v8.55h-4.275zM47.025,94.05v2.1375v14.9625h12.825v-17.1zM68.4,94.05v2.1375v14.9625h12.825v-17.1zM89.775,94.05v2.1375v14.9625h12.825v-17.1zM111.15,94.05v2.1375v14.9625h12.825v-17.1zM51.3,98.325h4.275v8.55h-4.275zM72.675,98.325h4.275v8.55h-4.275zM94.05,98.325h4.275v8.55h-4.275zM115.425,98.325h4.275v8.55h-4.275zM47.025,119.7v2.1375v14.9625h12.825v-17.1zM111.15,119.7v2.1375v14.9625h12.825v-17.1zM51.3,123.975h4.275v8.55h-4.275zM76.95,123.975h17.1v23.5125h-17.1zM115.425,123.975h4.275v8.55h-4.275z"></path></g></g></svg>