<?xml version="1.0" standalone="no"?>
<!DOCTYPE svg PUBLIC "-//W3C//DTD SVG 20010904//EN"
 "http://www.w3.org/TR/2001/REC-SVG-20010904/DTD/svg10.dtd">
<svg version="1.0" xmlns="http://www.w3.org/2000/svg"
 width="513.000000pt" height="486.000000pt" viewBox="0 0 513.000000 486.000000"
 preserveAspectRatio="xMidYMid meet">
<metadata>
Created by potrace 1.16, written by Peter Selinger 2001-2019
</metadata>
<g transform="translate(0.000000,486.000000) scale(0.100000,-0.100000)"
fill="#000000" stroke="none">
<path d="M400 4370 l0 -100 2260 0 2260 0 0 100 0 100 -2260 0 -2260 0 0 -100z"/>
<path d="M590 3655 l0 -435 64 0 c37 0 68 -5 72 -11 3 -6 14 -93 23 -193 l16
-181 25 1 c14 0 64 3 113 8 85 7 87 6 87 -14 0 -12 -13 -34 -30 -48 -41 -36
-40 -73 4 -118 28 -29 34 -42 30 -67 -2 -18 -11 -124 -20 -237 -12 -170 -13
-206 -2 -215 10 -8 13 -60 13 -240 l0 -230 -113 -391 c-61 -215 -112 -402
-112 -415 0 -13 -12 -54 -26 -92 -15 -38 -22 -72 -18 -76 5 -4 42 -34 82 -65
l72 -57 66 3 66 3 -45 28 c-49 31 -77 84 -77 146 0 28 3 32 18 26 9 -4 24 -9
32 -12 12 -3 46 79 149 354 74 197 138 362 143 368 4 5 5 -24 2 -65 -3 -41
-14 -190 -23 -330 -16 -244 -16 -255 1 -258 10 -2 18 -4 18 -5 0 -1 -7 -40
-15 -87 -8 -47 -15 -86 -15 -87 0 -2 -9 -3 -20 -3 -17 0 -20 -7 -20 -40 l0
-40 95 0 95 0 0 45 0 45 97 0 c95 0 96 0 78 20 -9 10 -41 24 -70 30 -60 12
-95 43 -98 86 -2 25 2 29 26 32 15 2 27 6 27 9 0 2 23 181 51 396 28 216 51
415 51 442 -1 28 -12 109 -26 180 -14 72 -26 136 -26 143 0 9 54 12 235 12
l235 0 -2 328 -3 327 -55 2 -55 2 -73 -79 -74 -80 61 0 61 0 0 -55 0 -55 -180
0 -180 0 0 55 0 55 43 0 c37 1 40 2 25 14 -10 7 -18 16 -18 20 0 4 19 31 43
61 28 36 47 52 59 49 9 -3 19 0 23 6 4 6 -5 10 -22 11 -22 1 -43 18 -98 79
-38 44 -83 88 -99 98 l-29 20 29 5 c16 3 146 16 289 28 244 20 262 23 285 45
27 24 90 44 90 27 0 -5 -6 -15 -12 -22 -18 -18 76 -12 697 44 275 25 502 45
505 45 2 0 -6 7 -18 16 -12 8 -22 19 -22 25 0 16 64 9 104 -12 37 -19 45 -20
160 -9 130 12 401 36 531 46 99 8 111 14 119 59 4 19 9 35 11 35 16 0 73 -44
70 -53 -3 -7 -1 -19 4 -27 8 -12 13 -12 30 4 38 34 57 -8 20 -45 -19 -19 -19
-22 -4 -45 25 -38 65 -32 109 17 20 22 41 51 46 65 12 31 14 31 132 39 89 6
97 8 100 28 3 19 10 22 61 25 l57 3 0 434 0 435 -2075 0 -2075 0 0 -435z
m4120 -5 l0 -410 -39 0 c-22 0 -43 5 -46 11 -4 6 -20 157 -37 337 -16 180 -31
329 -34 331 -4 4 -242 -16 -1129 -94 -82 -8 -229 -21 -325 -29 -96 -9 -429
-38 -740 -66 -311 -28 -617 -55 -680 -60 -800 -71 -971 -88 -976 -93 -3 -3 1
-77 9 -164 9 -87 12 -162 8 -166 -5 -5 -28 -7 -52 -5 l-44 3 -3 408 -2 407
2045 0 2045 0 0 -410z m-377 47 l36 -16 -5 -53 c-8 -72 -11 -79 -30 -71 -13 5
-15 14 -10 45 5 31 4 38 -6 32 -7 -4 -146 -95 -308 -202 -162 -107 -301 -197
-307 -199 -7 -3 -13 2 -13 11 0 11 109 89 298 214 163 108 298 202 300 207 2
6 -10 14 -27 19 -17 5 -31 16 -31 24 0 17 45 13 103 -11z m-1105 -193 c12 -8
22 -26 22 -39 0 -20 24 -36 180 -117 162 -84 208 -117 154 -111 -10 1 -93 41
-183 88 -128 66 -167 83 -177 74 -8 -7 -29 -9 -48 -6 -31 5 -44 -3 -167 -105
-93 -76 -136 -118 -141 -138 -18 -67 -84 -68 -114 -2 -1 2 -73 25 -160 51
-112 35 -160 53 -162 65 -2 9 2 16 8 16 6 0 81 -21 166 -47 134 -40 157 -45
178 -34 13 7 32 10 43 7 27 -9 303 217 296 242 -6 25 34 72 61 72 12 0 32 -7
44 -16z m-1522 -185 c196 -84 237 -98 254 -89 15 8 27 8 48 -3 24 -12 41 -9
161 21 100 25 136 31 144 23 17 -17 6 -22 -141 -60 -110 -28 -131 -37 -141
-57 -8 -19 -18 -24 -47 -24 -30 0 -37 4 -46 28 -10 25 -39 40 -242 128 -158
68 -232 105 -234 117 -2 9 0 17 3 17 4 0 112 -45 241 -101z m-343 51 c-27 -24
-443 -300 -452 -300 -40 0 16 47 211 179 171 115 226 147 236 139 7 -6 9 -14
5 -18z m415 -1127 l-3 -58 -170 0 -170 0 -3 58 -3 57 176 0 176 0 -3 -57z"/>
<path d="M3743 2997 c-29 -17 -53 -35 -53 -39 0 -4 25 -36 55 -72 30 -35 55
-67 55 -69 0 -3 -7 -7 -15 -11 -9 -3 -88 39 -195 104 -100 61 -183 110 -185
110 -6 0 -75 -137 -75 -147 0 -5 59 -48 130 -98 71 -49 129 -93 130 -97 0 -5
-43 -8 -95 -8 l-95 0 0 -325 0 -325 185 0 c102 0 185 -3 185 -6 0 -3 -45 -48
-99 -100 -109 -103 -128 -137 -117 -207 4 -23 58 -211 120 -417 l113 -375 49
-5 c47 -5 49 -6 52 -39 7 -74 -17 -103 -95 -116 l-43 -7 0 94 0 93 -130 -3
-130 -3 0 -115 0 -114 165 0 165 0 0 -160 0 -160 105 0 105 0 0 159 c0 115 3
160 12 163 9 3 8 27 -5 98 -10 58 -13 98 -7 104 5 7 -20 142 -71 366 -80 356
-86 390 -71 390 5 0 59 34 121 75 63 42 115 75 116 73 2 -2 13 -64 24 -138 13
-82 70 -322 146 -614 69 -263 125 -480 125 -482 0 -2 18 -4 40 -4 39 0 40 -1
40 -36 0 -42 -45 -94 -82 -94 -30 -1 -108 -36 -108 -50 0 -6 60 -10 175 -10
104 0 175 4 175 10 0 5 -4 31 -9 57 -22 112 -23 123 -6 123 8 0 15 7 15 15 0
7 -18 123 -40 257 -21 134 -57 353 -79 488 -47 292 -83 765 -60 806 10 19 10
87 0 336 -7 172 -17 327 -22 345 -10 32 -95 117 -135 135 -26 12 -160 -16
-184 -37 -22 -20 -97 -45 -134 -45 -25 0 -49 17 -120 80 -49 44 -89 80 -90 80
0 -1 -25 -15 -53 -33z m267 -511 c0 -2 -3 -11 -6 -20 -5 -14 -37 -16 -255 -16
-242 0 -249 1 -249 20 0 19 7 20 255 20 140 0 255 -2 255 -4z m-37 -213 c-7
-49 -21 -95 -30 -105 -15 -16 -37 -18 -230 -18 l-213 0 0 105 0 105 244 0 243
0 -14 -87z"/>
<path d="M2214 2671 c-2 -2 -4 -150 -4 -328 l0 -323 460 0 460 0 -2 325 -3
325 -453 3 c-250 1 -456 0 -458 -2z m624 -143 c-3 -23 -4 -23 -188 -23 -184 0
-185 0 -188 23 l-3 22 191 0 191 0 -3 -22z m182 -123 l0 -25 -280 0 c-265 0
-280 1 -280 18 0 10 3 22 7 25 3 4 129 7 280 7 l273 0 0 -25z m0 -125 c0 -20
-7 -20 -280 -20 -273 0 -280 0 -280 20 0 20 7 20 280 20 273 0 280 0 280 -20z
m0 -125 l0 -25 -277 2 -278 3 -3 23 -3 22 280 0 281 0 0 -25z"/>
<path d="M3160 1075 l0 -135 165 0 165 0 0 135 0 135 -165 0 -165 0 0 -135z"/>
<path d="M380 475 l0 -95 90 0 90 0 0 95 0 95 -90 0 -90 0 0 -95z"/>
</g>
</svg>
