<svg xmlns="http://www.w3.org/2000/svg" width="1340" height="236" fill="none" style=""><rect id="backgroundrect" width="100%" height="100%" x="0" y="0" fill="none" stroke="none"/>

<g class="currentLayer" style=""><title>Layer 1</title><path fill-rule="evenodd" clip-rule="evenodd" d="M0,92.58003L93.24468,117.22687C211.3246,146.63348 253.50651,143.18636 331.0817,130.43621C408.65689,117.68606 420.13991,91.36808 509.35425,74.66087C598.56758,57.95395 714.76504,129.01451 803.97838,129.01451C893.19171,129.01451 982.40505,62.18675 1071.62138,67.75573C1160.83171,73.3247 1234.16904,139.12127 1278.77421,178.10367L1340.3082,232.9016L1338.73328,-2.52446L1294.64722,-4.64086C1250.04205,-4.64086 1160.83171,-4.64086 1071.62138,-4.64086C982.40505,-4.64086 893.19171,-4.64086 803.97838,-4.64086C714.76504,-4.64086 625.55171,-4.64086 536.33838,-4.64086C447.12404,-4.64086 357.91071,-4.64086 268.69738,-4.64086C179.48404,-4.64086 90.27081,-4.64086 45.66404,-4.64086L1.05737,-4.64086L1.05737,-0.53737z" fill="#212529" id="svg_1" class="selected"/></g></svg>