<?xml version="1.0" standalone="no"?>
<svg xmlns:xlink="http://www.w3.org/1999/xlink" id="wave" style="transform:rotate(180deg); transition: 0.3s" viewBox="0 0 1440 290" version="1.1" xmlns="http://www.w3.org/2000/svg"><defs><linearGradient id="sw-gradient-0" x1="0" x2="0" y1="1" y2="0"><stop stop-color="rgba(52, 148, 76, 1)" offset="0%"/><stop stop-color="rgba(21.881, 52.686, 29.583, 1)" offset="100%"/></linearGradient></defs><path style="transform:translate(0, 0px); opacity:1" fill="url(#sw-gradient-0)" d="M0,145L60,130.5C120,116,240,87,360,106.3C480,126,600,193,720,203C840,213,960,164,1080,154.7C1200,145,1320,174,1440,188.5C1560,203,1680,203,1800,183.7C1920,164,2040,126,2160,125.7C2280,126,2400,164,2520,188.5C2640,213,2760,222,2880,217.5C3000,213,3120,193,3240,193.3C3360,193,3480,213,3600,183.7C3720,155,3840,77,3960,48.3C4080,19,4200,39,4320,82.2C4440,126,4560,193,4680,227.2C4800,261,4920,261,5040,256.2C5160,251,5280,242,5400,198.2C5520,155,5640,77,5760,48.3C5880,19,6000,39,6120,58C6240,77,6360,97,6480,91.8C6600,87,6720,58,6840,43.5C6960,29,7080,29,7200,33.8C7320,39,7440,48,7560,53.2C7680,58,7800,58,7920,91.8C8040,126,8160,193,8280,183.7C8400,174,8520,87,8580,43.5L8640,0L8640,290L8580,290C8520,290,8400,290,8280,290C8160,290,8040,290,7920,290C7800,290,7680,290,7560,290C7440,290,7320,290,7200,290C7080,290,6960,290,6840,290C6720,290,6600,290,6480,290C6360,290,6240,290,6120,290C6000,290,5880,290,5760,290C5640,290,5520,290,5400,290C5280,290,5160,290,5040,290C4920,290,4800,290,4680,290C4560,290,4440,290,4320,290C4200,290,4080,290,3960,290C3840,290,3720,290,3600,290C3480,290,3360,290,3240,290C3120,290,3000,290,2880,290C2760,290,2640,290,2520,290C2400,290,2280,290,2160,290C2040,290,1920,290,1800,290C1680,290,1560,290,1440,290C1320,290,1200,290,1080,290C960,290,840,290,720,290C600,290,480,290,360,290C240,290,120,290,60,290L0,290Z"/></svg>