<svg width="1340" height="236" xmlns="http://www.w3.org/2000/svg" fill="none">
 <g>
  <title>Layer 1</title>
  <path stroke="null" fill-rule="evenodd" clip-rule="evenodd" d="m-1,68.43198l44.6415,14.32954c44.6416,14.32954 133.9245,42.98862 223.2075,31.52489c89.283,-11.46374 178.566,-63.04977 267.85,-71.64765c89.283,-8.59772 178.566,25.79322 267.849,25.79322c89.283,0 178.566,-34.39095 267.852,-31.52505c89.28,2.86591 178.56,42.98878 223.2,63.04993l44.65,20.06115l0,-120.36786l-44.65,0c-44.64,0 -133.92,0 -223.2,0c-89.286,0 -178.569,0 -267.852,0c-89.283,0 -178.566,0 -267.849,0c-89.284,0 -178.567,0 -267.85,0c-89.283,0 -178.5659,0 -223.2075,0l-44.6415,0l0,68.78183l0,0.00001z" fill="#376d2b" id="svg_1"/>
 </g>

</svg>